<?xml version="1.0" encoding="utf-8"?>
<svg version="1.1" id="Layer_1" xmlns="http://www.w3.org/2000/svg" xmlns:xlink="http://www.w3.org/1999/xlink" x="0px" y="0px"
	 viewBox="0 0 24 24" style="enable-background:new 0 0 24 24;" xml:space="preserve">
<style type="text/css">
	.st0{fill:#FFA700;}
	.st1{fill:#FFD085;}
</style>
<path class="st0" d="M10,4H4C2.9,4,2,4.9,2,6v12c0,1.1,0.9,2,2,2h16c1.1,0,2-0.9,2-2V8c0-1.1-0.9-2-2-2h-8L10,4z"/>
<path class="st1" d="M17.3,21.7c-3.4,0-6.2-2.8-6.2-6.2c0-3.4,2.8-6.2,6.2-6.2c3.4,0,6.2,2.8,6.2,6.2C23.5,18.9,20.7,21.7,17.3,21.7
	z M18.3,15.5c0,0.1,0,0.2,0,0.2c0,0.7,0,1.4,0,2.1c0,0.2,0.1,0.3,0.3,0.3c0.5,0,1,0,1.5,0c0.2,0,0.3-0.1,0.3-0.3c0-1.3,0-2.5,0-3.8
	c0-0.1,0-0.2-0.2-0.3c-0.9-0.7-1.8-1.4-2.7-2.1c-0.2-0.1-0.3-0.1-0.4,0c-0.9,0.7-1.7,1.4-2.6,2.1c-0.1,0.1-0.2,0.2-0.2,0.3
	c0,1.3,0,2.5,0,3.8c0,0.2,0.1,0.3,0.3,0.3c0.5,0,1,0,1.4,0c0.3,0,0.3-0.1,0.3-0.3c0-0.7,0-1.4,0-2.1c0-0.1,0-0.1,0-0.2
	C17.1,15.5,17.7,15.5,18.3,15.5z"/>
</svg>
