<?xml version="1.0" encoding="utf-8"?>
<svg version="1.1" id="Layer_1" xmlns="http://www.w3.org/2000/svg" xmlns:xlink="http://www.w3.org/1999/xlink" x="0px" y="0px"
	 viewBox="0 0 24 24" style="enable-background:new 0 0 24 24;" xml:space="preserve">
<style type="text/css">
	.st0{fill:#8A2BE2;}
	.st1{fill:#C695F9;}
</style>
<path class="st0" d="M19,20H4c-1.1,0-2-0.9-2-2V6c0-1.1,0.9-2,2-2h6l2,2h7c1.1,0,2,0.9,2,2H4v10l2.1-8h17.1l-2.3,8.5
	C20.7,19.4,19.9,20,19,20z"/>
<g>
	<path class="st1" d="M14.8,15.5l2.5,2.5l2.6-2.5L17.3,13L14.8,15.5z M18.6,14.4v2.1c0,0.1-0.1,0.2-0.2,0.2h-2.1
		c-0.1,0-0.2-0.1-0.2-0.2v-2.1c0-0.1,0.1-0.2,0.2-0.2h2.1C18.5,14.2,18.6,14.3,18.6,14.4z"/>
	<path class="st1" d="M17.3,9.3c-3.4,0-6.2,2.8-6.2,6.2s2.8,6.2,6.2,6.2c3.4,0,6.2-2.8,6.2-6.2S20.7,9.3,17.3,9.3z M21.1,13.4
		c-0.1,0.1-0.2,0.1-0.3,0L20.4,13c0-0.1-0.1-0.1-0.2,0l-1,1l0.4,0.4l0.6-0.6c0.1-0.1,0.2-0.1,0.3,0c0.1,0.1,0.1,0.2,0,0.3l-0.6,0.6
		l0.6,0.6c0.1,0.1,0.1,0.2,0,0.3l-0.6,0.6l0.6,0.6c0.1,0.1,0.1,0.2,0,0.3c-0.1,0.1-0.2,0.1-0.3,0l-0.6-0.6l-0.4,0.4l1,1
		c0.2,0.2,0.2,0.6,0,0.8l-0.4,0.4c-0.1,0.1-0.2,0.1-0.3,0c-0.1-0.1-0.1-0.2,0-0.3l0.4-0.4c0.1,0,0.1-0.1,0-0.2l-1-1l-0.4,0.4
		l0.6,0.6c0.1,0.1,0.1,0.2,0,0.3c-0.1,0.1-0.2,0.1-0.3,0l-0.6-0.6l-0.6,0.6c-0.1,0.1-0.2,0.1-0.3,0l-0.6-0.6l-0.6,0.6
		c-0.1,0.1-0.2,0.1-0.3,0c-0.1-0.1-0.1-0.2,0-0.3l0.6-0.6L16,17.2l-1.1,1.1c-0.2,0.2-0.6,0.2-0.8,0l-0.4-0.4c-0.1-0.1-0.1-0.2,0-0.3
		c0.1-0.1,0.2-0.1,0.3,0l0.4,0.4c0,0.1,0.1,0.1,0.2,0l1-1l-0.4-0.4l-0.6,0.6c-0.1,0.1-0.2,0.1-0.3,0c-0.1-0.1-0.1-0.2,0-0.3l0.6-0.6
		l-0.6-0.6c-0.1-0.1-0.1-0.2,0-0.3l0.6-0.6l-0.6-0.6c-0.1-0.1-0.1-0.2,0-0.3c0.1-0.1,0.2-0.1,0.3,0l0.6,0.6l0.4-0.4L14.5,13
		c-0.2-0.2-0.2-0.6,0-0.8l0.4-0.4c0.1-0.1,0.2-0.1,0.3,0c0.1,0.1,0.1,0.2,0,0.3l-0.4,0.4c-0.1,0-0.1,0.1,0,0.2l1.1,1.1l0.4-0.4
		l-0.6-0.6c-0.1-0.1-0.1-0.2,0-0.3c0.1-0.1,0.2-0.1,0.3,0l0.5,0.6l0.6-0.6c0.1-0.1,0.2-0.1,0.3,0l0.6,0.6l0.7-0.6
		c0.1-0.1,0.2-0.1,0.3,0s0.1,0.2,0,0.3l-0.6,0.6l0.4,0.4l1-1c0.2-0.2,0.6-0.2,0.8,0l0.4,0.4C21.1,13.3,21.2,13.3,21.1,13.4z"/>
	<rect x="16.5" y="14.6" class="st1" width="1.7" height="1.7"/>
</g>
</svg>
