<?xml version="1.0" encoding="utf-8"?>
<svg version="1.1" id="Layer_1" xmlns="http://www.w3.org/2000/svg" xmlns:xlink="http://www.w3.org/1999/xlink" x="0px" y="0px"
	 viewBox="0 0 24 24" style="enable-background:new 0 0 24 24;" xml:space="preserve">
<style type="text/css">
	.st0{fill:#0047AB;}
	.st1{fill:#4389DD;}
</style>
<path class="st0" d="M10,4H4C2.9,4,2,4.9,2,6v12c0,1.1,0.9,2,2,2h16c1.1,0,2-0.9,2-2V8c0-1.1-0.9-2-2-2h-8L10,4z"/>
<g>
	<path class="st1" d="M16.6,17.2c-0.1-0.1-0.1-0.1-0.1-0.2c-0.2,0.2-0.5,0.4-0.7,0.6c0.1,0.1,0.1,0.1,0.1,0.2
		C16.1,17.6,16.3,17.4,16.6,17.2z"/>
	<path class="st1" d="M18.2,16.2c0.1,0.1,0.1,0.1,0.2,0.2c0.1-0.1,0.2-0.2,0.3-0.3c0.1-0.1,0.2-0.2,0.3-0.3
		c-0.1-0.1-0.1-0.1-0.2-0.2C18.5,15.8,18.4,16,18.2,16.2z"/>
	<path class="st1" d="M18.6,15.4c-0.1-0.1-0.1-0.1-0.2-0.2c-0.2,0.2-0.4,0.4-0.6,0.5c0.1,0.1,0.1,0.1,0.2,0.2
		C18.2,15.8,18.4,15.6,18.6,15.4z"/>
	<path class="st1" d="M19.5,15.3c0.1-0.1,0.1-0.1,0-0.2c-0.1-0.1-0.2-0.2-0.3-0.3c-0.1-0.1-0.1-0.1-0.2,0c-0.1,0.1-0.2,0.2-0.3,0.3
		c0,0-0.1,0.1-0.1,0.1c0.2,0.2,0.3,0.4,0.5,0.5C19.2,15.5,19.4,15.4,19.5,15.3z"/>
	<path class="st1" d="M18.4,13.6c0.3,0,0.6-0.3,0.6-0.6c0-0.3-0.3-0.6-0.6-0.6c-0.3,0-0.6,0.3-0.6,0.6
		C17.8,13.3,18.1,13.6,18.4,13.6z"/>
	<path class="st1" d="M15.9,11.5c-0.6,0.7-1.2,1.3-1.8,1.9c0.6,0,1.2,0,1.8,0C15.9,12.8,15.9,12.1,15.9,11.5z"/>
	<path class="st1" d="M20.5,11.7c0-0.3-0.2-0.4-0.4-0.4c-1.3,0-2.5,0-3.8,0c0,0-0.1,0-0.1,0c0,0,0,0.1,0,0.1c0,0.7,0,1.4,0,2.1
		c0,0.2,0,0.2-0.2,0.2c-0.6,0-1.3,0-1.9,0c0,0-0.1,0-0.1,0c0,0,0,0.1,0,0.1c0,1.7,0,3.5,0,5.2c0,0.3,0.2,0.4,0.4,0.4
		c1.9,0,3.8,0,5.7,0c0.1,0,0.2,0,0.2,0c0.2-0.1,0.2-0.2,0.2-0.4c0-0.3,0-0.7,0-1C20.5,15.9,20.5,13.8,20.5,11.7z M17.2,12.8
		c0.1,0,0.2,0,0.3-0.1c0,0,0,0,0,0c0-0.1,0.1-0.2,0.1-0.3c-0.1-0.1-0.1-0.2-0.2-0.3c0.1-0.1,0.1-0.1,0.2-0.2
		c0.1,0.1,0.2,0.1,0.3,0.2c0.1-0.1,0.2-0.1,0.3-0.1c0,0,0,0,0,0c0-0.1,0-0.2,0.1-0.3c0.1,0,0.2,0,0.3,0c0,0,0,0,0,0
		c0,0.1,0,0.2,0.1,0.3c0,0,0,0,0,0c0.1,0,0.2,0.1,0.2,0.1c0,0,0,0,0,0c0.1-0.1,0.2-0.1,0.2-0.2c0,0,0,0,0,0c0.1,0.1,0.1,0.1,0.2,0.2
		c0,0,0,0,0,0c-0.1,0.1-0.1,0.2-0.2,0.2c0,0,0,0,0,0c0,0.1,0.1,0.2,0.1,0.2c0,0,0,0,0,0c0,0,0.1,0,0.1,0c0.1,0,0.1,0,0.2,0
		c0,0.1,0,0.2,0,0.3c-0.1,0-0.2,0-0.3,0.1c0,0,0,0,0,0c0,0.1-0.1,0.2-0.1,0.2c0,0,0,0,0,0c0.1,0.1,0.1,0.2,0.2,0.2
		c-0.1,0.1-0.1,0.1-0.2,0.2c-0.1-0.1-0.2-0.1-0.3-0.2c0,0-0.1,0-0.1,0.1c0,0-0.1,0-0.1,0c0,0,0,0,0,0c0,0.1,0,0.1,0,0.2
		c0,0.1,0,0.1,0,0.2c-0.1,0-0.2,0-0.3,0c0,0,0,0,0,0c0-0.1,0-0.2,0-0.3c0,0,0,0,0,0c-0.1,0-0.2-0.1-0.3-0.1
		c-0.1,0.1-0.2,0.1-0.3,0.2c-0.1-0.1-0.1-0.1-0.2-0.2c0.1-0.1,0.1-0.2,0.2-0.3c-0.1-0.1-0.1-0.2-0.1-0.3c0,0,0,0,0,0
		c-0.1,0-0.2,0-0.3-0.1C17.2,13,17.2,12.9,17.2,12.8z M19.8,18c-0.4,0.4-0.7,0.7-1.1,1.1c-0.1,0.1-0.2,0.1-0.3,0
		c-0.4-0.4-0.8-0.9-1.3-1.3c0,0,0,0-0.1-0.1c-0.1,0.1-0.2,0.2-0.4,0.3c0,0-0.1,0.1-0.1,0.1c-0.2,0.2-0.5,0.4-0.8,0.5
		c-0.3,0.1-0.7,0.3-1,0.4c0,0-0.1,0-0.2,0c-0.1,0-0.1-0.1,0-0.2c0.2-0.3,0.3-0.6,0.5-0.8c0.2-0.5,0.6-0.8,1-1.1
		c0.1,0,0.1-0.1,0.2-0.2c-0.2-0.2-0.4-0.4-0.6-0.5c-0.2-0.2-0.4-0.4-0.6-0.6c-0.1-0.1-0.1-0.2,0-0.2c0.4-0.4,0.7-0.7,1.1-1.1
		c0.1-0.1,0.2-0.1,0.2,0c0.4,0.4,0.8,0.8,1.2,1.2c0,0,0,0,0,0c0.2-0.1,0.3-0.3,0.5-0.4c0.2-0.2,0.5-0.4,0.7-0.6
		c0.2-0.2,0.4-0.2,0.6,0c0.1,0.1,0.2,0.2,0.3,0.3c0.2,0.2,0.2,0.4,0,0.6c-0.4,0.3-0.7,0.7-1.1,1c0,0,0,0-0.1,0
		c0.1,0.1,0.2,0.2,0.4,0.4c0.3,0.3,0.6,0.6,0.9,0.9C19.9,17.9,19.9,18,19.8,18z"/>
	<path class="st1" d="M15.1,18.8C15.1,18.8,15.1,18.8,15.1,18.8c0.3-0.1,0.6-0.2,0.9-0.4c-0.1-0.2-0.3-0.3-0.4-0.5
		C15.4,18.2,15.2,18.5,15.1,18.8z"/>
	<path class="st1" d="M15.4,15.6c0.1,0.1,0.1,0.1,0.2,0.2c0,0,0,0,0,0c0.2-0.2,0.4-0.4,0.5-0.5c0.1-0.1,0.2-0.1,0.2,0
		c0.1,0.1,0,0.1,0,0.2c0,0-0.1,0.1-0.1,0.1c-0.1,0.1-0.3,0.3-0.4,0.4c0.1,0.1,0.2,0.1,0.2,0.2c0,0,0,0,0,0c0.1-0.1,0.2-0.2,0.3-0.3
		c0.1-0.1,0.1-0.1,0.2,0c0.1,0.1,0.1,0.1,0,0.2c0,0,0,0-0.1,0.1c-0.1,0.1-0.2,0.2-0.3,0.3c0.1,0.1,0.2,0.1,0.2,0.2
		c0-0.1,0.1-0.1,0.2-0.2c0.1-0.1,0.3-0.3,0.4-0.4c0,0,0.1,0,0.1,0c0,0,0.1,0.1,0.1,0.1c0,0,0,0.1-0.1,0.1c-0.2,0.2-0.3,0.3-0.5,0.5
		c0,0-0.1,0.1-0.1,0.1c0.1,0.1,0.2,0.2,0.2,0.2c0,0,0-0.1,0.1-0.1c0.1-0.1,0.2-0.2,0.2-0.2c0.1-0.1,0.2-0.1,0.2,0
		c0.1,0.1,0,0.1,0,0.2c0,0,0,0-0.1,0.1c-0.1,0.1-0.2,0.2-0.3,0.3c0.1,0.1,0.2,0.2,0.2,0.2c0,0,0,0,0.1-0.1c0.2-0.2,0.4-0.4,0.5-0.5
		c0.1-0.1,0.1-0.1,0.2,0c0.1,0.1,0.1,0.1,0,0.2c-0.1,0.1-0.2,0.2-0.3,0.3c-0.1,0.1-0.2,0.2-0.3,0.3c0.1,0.1,0.2,0.2,0.2,0.3
		c0,0,0-0.1,0.1-0.1c0.1-0.1,0.2-0.2,0.2-0.2c0.1-0.1,0.1-0.1,0.2,0c0.1,0.1,0.1,0.1,0,0.2c0,0-0.1,0.1-0.1,0.1
		c-0.1,0.1-0.1,0.1-0.2,0.2c0.1,0.1,0.2,0.2,0.2,0.2c0,0,0,0,0.1,0c0.2-0.2,0.4-0.4,0.6-0.6c0.1-0.1,0.1-0.1,0.2,0
		C19,17.9,19,18,19,18c0,0-0.1,0.1-0.1,0.1c-0.2,0.2-0.3,0.3-0.5,0.5c0.1,0.1,0.1,0.1,0.2,0.2c0.3-0.2,0.5-0.5,0.7-0.7
		c0.1-0.1,0.1-0.1,0.2-0.2c-1.1-1.1-2.1-2.2-3.2-3.3C16,15,15.7,15.3,15.4,15.6z"/>
	<path class="st1" d="M17.3,9.3c-3.4,0-6.2,2.8-6.2,6.2c0,3.4,2.8,6.2,6.2,6.2c3.4,0,6.2-2.8,6.2-6.2C23.5,12.1,20.7,9.3,17.3,9.3z
		 M20.1,19.7c-1.9,0-3.8,0-5.7,0c-0.4,0-0.7-0.3-0.7-0.7c0-1.8,0-3.6,0-5.4c0-0.1,0-0.1,0.1-0.2c0.7-0.7,1.3-1.4,2-2.2
		c0.2-0.2,0.4-0.3,0.6-0.3c1.2,0,2.5,0,3.7,0c0.4,0,0.7,0.3,0.7,0.7c0,1.2,0,2.4,0,3.7c0,1.2,0,2.4,0,3.7
		C20.8,19.4,20.5,19.7,20.1,19.7z"/>
	<path class="st1" d="M16,18.1c0.1,0.1,0.1,0.1,0.2,0.2c0.2-0.2,0.5-0.4,0.7-0.7c-0.1-0.1-0.1-0.1-0.2-0.2
		C16.5,17.6,16.3,17.8,16,18.1z"/>
</g>
</svg>
