<?xml version="1.0" encoding="utf-8"?>
<svg version="1.1" id="Layer_1" xmlns="http://www.w3.org/2000/svg" xmlns:xlink="http://www.w3.org/1999/xlink" x="0px" y="0px"
	 viewBox="0 0 24 24" style="enable-background:new 0 0 24 24;" xml:space="preserve">
<style type="text/css">
	.st0{fill:#ED9121;}
	.st1{fill:#FFAE55;}
</style>
<path class="st0" d="M19,20H4c-1.1,0-2-0.9-2-2V6c0-1.1,0.9-2,2-2h6l2,2h7c1.1,0,2,0.9,2,2H4v10l2.1-8h17.1l-2.3,8.5
	C20.7,19.4,19.9,20,19,20z"/>
<path class="st1" d="M17.3,9.3c-3.4,0-6.2,2.8-6.2,6.2c0,3.4,2.8,6.2,6.2,6.2s6.2-2.8,6.2-6.2C23.5,12.1,20.7,9.3,17.3,9.3z
	 M14.9,19.4c-0.4,0-0.8-0.4-0.8-0.8c0-0.4,0.4-0.8,0.8-0.8c0.4,0,0.8,0.3,0.8,0.8C15.7,19.1,15.4,19.4,14.9,19.4z M18.9,19.4
	c-0.4,0-0.8-0.3-0.8-0.8c0-0.4,0.3-0.8,0.8-0.8c0.4,0,0.8,0.3,0.8,0.8C19.7,19.1,19.3,19.4,18.9,19.4z M21.2,12.3
	c-0.2,0-0.5,0-0.7,0c-0.1,0-0.1,0-0.1,0.1c-0.4,0.9-0.9,1.9-1.3,2.8c0,0.1,0,0.1,0,0.1c0.2,0.3,0.3,0.6,0.5,0.9
	c0.1,0.1,0.1,0.3,0.1,0.4c0,0.5-0.3,0.8-0.8,0.8c-1.5,0-3.1,0-4.6,0c0,0-0.1,0-0.1,0c0-0.3,0-0.5,0-0.8c0,0,0.1,0,0.1,0
	c1.5,0,2.9,0,4.4,0c0.1,0,0.2-0.1,0.1-0.2c-0.1-0.2-0.2-0.3-0.3-0.5c0-0.1-0.1-0.1-0.1-0.1c-0.9,0-1.9,0-2.8,0
	c-0.3,0-0.6-0.1-0.8-0.5c-0.3-0.5-0.6-1-0.8-1.5c-0.2-0.3-0.4-0.7-0.5-1c-0.1-0.2,0-0.5,0.3-0.6c0,0,0.1,0,0.1,0c1.9,0,3.8,0,5.6,0
	c0.1,0,0.1,0,0.2-0.1c0.1-0.2,0.2-0.4,0.3-0.6c0-0.1,0.1-0.1,0.1-0.1c0.4,0,0.7,0,1.1,0c0,0,0.1,0,0.1,0
	C21.2,11.8,21.2,12.1,21.2,12.3z"/>
</svg>
