<?xml version="1.0" encoding="utf-8"?>
<svg version="1.1" id="Layer_1" xmlns="http://www.w3.org/2000/svg" xmlns:xlink="http://www.w3.org/1999/xlink" x="0px" y="0px"
	 viewBox="0 0 24 24" style="enable-background:new 0 0 24 24;" xml:space="preserve">
<style type="text/css">
	.st0{fill:#24EAA2;}
	.st1{fill:#88FFD1;}
</style>
<path class="st0" d="M10,4H4C2.9,4,2,4.9,2,6v12c0,1.1,0.9,2,2,2h16c1.1,0,2-0.9,2-2V8c0-1.1-0.9-2-2-2h-8L10,4z"/>
<g>
	<path class="st1" d="M17.8,17.9c0.8,0,1.6,0,2.4,0c0-0.5,0-0.9,0-1.4c-0.8,0-1.6,0-2.4,0C17.8,16.9,17.8,17.4,17.8,17.9z"/>
	<path class="st1" d="M17.3,9.3c-3.4,0-6.2,2.8-6.2,6.2c0,3.4,2.8,6.2,6.2,6.2c3.4,0,6.2-2.8,6.2-6.2C23.5,12.1,20.7,9.3,17.3,9.3z
		 M21.2,19.4c-2.6,0-5.2,0-7.8,0c0-1.3,0-2.6,0-3.9c0.6,0.1,1.1,0,1.6-0.4c0.8,0.6,1.4,0.6,2.3,0c0.8,0.6,1.5,0.6,2.3,0
		c0.5,0.4,1,0.5,1.6,0.4C21.2,16.8,21.2,18.1,21.2,19.4z M21.3,14.8c-0.3,0.2-0.7,0.2-1,0.1c-0.4-0.2-0.6-0.5-0.7-0.9
		c-0.3,0.7-0.6,1-1.2,1c-0.5,0-0.9-0.4-1.1-1c-0.2,0.6-0.6,1-1.1,1c-0.6,0-0.9-0.2-1.3-1c0,0.1,0,0.2-0.1,0.3
		c-0.2,0.5-0.6,0.8-1.1,0.7c-0.5,0-0.9-0.4-1-0.9c0-0.1,0-0.3,0.1-0.4c0.5-0.7,1-1.4,1.6-2.1c0.1-0.1,0.2-0.1,0.3-0.1
		c1.9,0,3.8,0,5.7,0c0.1,0,0.2,0,0.3,0.2c0.4,0.7,0.8,1.3,1.2,1.9c0.2,0.3,0.2,0.5,0,0.7C21.7,14.5,21.5,14.7,21.3,14.8z"/>
	<path class="st1" d="M14.8,18.9c0.5,0,0.9,0,1.4,0c0-0.8,0-1.6,0-2.4c-0.5,0-0.9,0-1.4,0C14.8,17.2,14.8,18,14.8,18.9z"/>
</g>
</svg>
