<?xml version="1.0" encoding="utf-8"?>
<svg version="1.1" id="Layer_1" xmlns="http://www.w3.org/2000/svg" xmlns:xlink="http://www.w3.org/1999/xlink" x="0px" y="0px"
	 viewBox="0 0 24 24" style="enable-background:new 0 0 24 24;" xml:space="preserve">
<style type="text/css">
	.st0{fill:#3F4142;}
	.st1{fill:#777777;}
</style>
<path class="st0" d="M10,4H4C2.9,4,2,4.9,2,6v12c0,1.1,0.9,2,2,2h16c1.1,0,2-0.9,2-2V8c0-1.1-0.9-2-2-2h-8L10,4z"/>
<path class="st1" d="M17.3,9.3c-3.4,0-6.2,2.8-6.2,6.2s2.8,6.2,6.2,6.2s6.2-2.8,6.2-6.2S20.8,9.3,17.3,9.3z M13.4,12.7
	c0,0,1.6,1.2,1.6,1.7c0,0.4-1.6,1.7-1.6,1.7V12.7z M15.2,18.3c0,0-1.5-1.3-1.5-1.7c0-0.4,1.5-1.7,1.5-1.7V18.3z M17.6,18.4
	c-0.2,0-1.5-1.4-1.7-1.6c-0.2-0.2-0.3-0.7-0.3-0.7v-3.4l2.8,2.8c0,0,0.9,0.8,0.9,1.2C19.4,16.9,17.8,18.4,17.6,18.4z M19.9,16.3
	L18,14.5l4.1-0.4L19.9,16.3z"/>
</svg>
