<?xml version="1.0" encoding="utf-8"?>
<svg version="1.1" id="Layer_1" xmlns="http://www.w3.org/2000/svg" xmlns:xlink="http://www.w3.org/1999/xlink" x="0px" y="0px"
	 viewBox="0 0 24 24" style="enable-background:new 0 0 24 24;" xml:space="preserve">
<style type="text/css">
	.st0{fill:#6F00FF;}
	.st1{fill:#8B44FC;}
</style>
<path class="st0" d="M19,20H4c-1.1,0-2-0.9-2-2V6c0-1.1,0.9-2,2-2h6l2,2h7c1.1,0,2,0.9,2,2H4v10l2.1-8h17.1l-2.3,8.5
	C20.7,19.4,19.9,20,19,20z"/>
<g>
	<path class="st1" d="M19.8,15.4h-5.3c-0.1,0-0.2,0.1-0.2,0.2v1.1c0,0.1,0.1,0.2,0.2,0.2h5.3c0.1,0,0.2-0.1,0.2-0.2v-1.1
		C20,15.5,19.9,15.4,19.8,15.4z M17.3,16.3h-1.8c-0.1,0-0.1-0.1-0.1-0.1c0-0.1,0.1-0.1,0.1-0.1h1.8c0.1,0,0.1,0.1,0.1,0.1
		C17.4,16.2,17.3,16.3,17.3,16.3z M18.7,16.3c-0.1,0-0.2-0.1-0.2-0.2c0-0.1,0.1-0.2,0.2-0.2c0.1,0,0.2,0.1,0.2,0.2
		C18.9,16.2,18.8,16.3,18.7,16.3z"/>
	<path class="st1" d="M14.4,11.9c-0.2,0-0.3,0.1-0.3,0.3c0,0.2,0.1,0.3,0.3,0.3c0.2,0,0.3-0.1,0.3-0.3
		C14.7,12.1,14.5,11.9,14.4,11.9z"/>
	<path class="st1" d="M14.4,13.8v1.1c0,0.1,0.1,0.2,0.2,0.2h5.3c0.1,0,0.2-0.1,0.2-0.2v-1.1h0c0-0.1-0.1-0.2-0.2-0.2h-5.3
		C14.5,13.6,14.4,13.7,14.4,13.8z M18.7,14.2c0.1,0,0.2,0.1,0.2,0.2c0,0.1-0.1,0.2-0.2,0.2c-0.1,0-0.2-0.1-0.2-0.2
		C18.5,14.3,18.6,14.2,18.7,14.2z M15.5,14.2h1.8c0.1,0,0.1,0.1,0.1,0.1c0,0.1-0.1,0.1-0.1,0.1h-1.8c-0.1,0-0.1-0.1-0.1-0.1
		C15.3,14.3,15.4,14.2,15.5,14.2z"/>
	<path class="st1" d="M17.3,9.3c-3.4,0-6.2,2.8-6.2,6.2c0,3.4,2.8,6.2,6.2,6.2c3.4,0,6.2-2.8,6.2-6.2C23.5,12.1,20.7,9.3,17.3,9.3z
		 M20,12.8c-0.3,0-0.5-0.2-0.5-0.4h-1.7c-0.1,0.2-0.2,0.4-0.4,0.4v0.4c0,0.1-0.1,0.1-0.1,0.1h2.6c0.3,0,0.5,0.2,0.5,0.5v1.1
		c0,0.1-0.1,0.3-0.1,0.3c0.1,0.1,0.1,0.2,0.1,0.3v1.1c0,0.1-0.1,0.3-0.1,0.3c0.1,0.1,0.1,0.2,0.1,0.3v1.1c0,0.3-0.2,0.5-0.5,0.5
		h-5.3c-0.3,0-0.5-0.2-0.5-0.5v-1.1c0-0.1,0.1-0.3,0.1-0.3c-0.1-0.1-0.1-0.2-0.1-0.3v-1.1c0-0.1,0.1-0.3,0.1-0.3
		c-0.1-0.1-0.1-0.2-0.1-0.3v-1.1c0-0.3,0.2-0.5,0.5-0.5h2.6c-0.1,0-0.1-0.1-0.1-0.1v-0.4c-0.2-0.1-0.4-0.2-0.4-0.4h-1.7
		c-0.1,0.2-0.3,0.4-0.5,0.4c-0.3,0-0.6-0.3-0.6-0.6c0-0.3,0.3-0.6,0.6-0.6c0.3,0,0.5,0.2,0.5,0.4h1.7c0.1-0.2,0.3-0.4,0.5-0.4
		s0.5,0.2,0.5,0.4h1.7c0.1-0.2,0.3-0.4,0.5-0.4c0.3,0,0.6,0.3,0.6,0.6C20.6,12.5,20.3,12.8,20,12.8z"/>
	<path class="st1" d="M19.8,17.2h-5.3c-0.1,0-0.2,0.1-0.2,0.2v1.1c0,0.1,0.1,0.2,0.2,0.2h5.3c0.1,0,0.2-0.1,0.2-0.2v-1.1
		C20,17.3,19.9,17.2,19.8,17.2z M17.3,18h-1.8c-0.1,0-0.1-0.1-0.1-0.1s0.1-0.1,0.1-0.1h1.8c0.1,0,0.1,0.1,0.1,0.1S17.3,18,17.3,18z
		 M18.7,18.1c-0.1,0-0.2-0.1-0.2-0.2s0.1-0.2,0.2-0.2c0.1,0,0.2,0.1,0.2,0.2S18.8,18.1,18.7,18.1z"/>
	<path class="st1" d="M17.2,11.9c-0.2,0-0.3,0.1-0.3,0.3c0,0.2,0.1,0.3,0.3,0.3c0.2,0,0.3-0.1,0.3-0.3
		C17.5,12.1,17.4,11.9,17.2,11.9z"/>
	<path class="st1" d="M20,11.9c-0.2,0-0.3,0.1-0.3,0.3c0,0.2,0.1,0.3,0.3,0.3s0.3-0.1,0.3-0.3C20.3,12.1,20.2,11.9,20,11.9z"/>
</g>
</svg>
